<svg xmlns="http://www.w3.org/2000/svg" viewBox="0 0 512 512">
  <!-- Background -->
  <rect width="512" height="512" rx="108" fill="#09090b"/>

  <!-- Gradient ring — tonic glow fading around the circle -->
  <path d="M 181.77 59.56 A 210 210 0 0 1 330.23 59.56 L 303.72 129.72 A 135 135 0 0 0 208.28 129.72 Z" fill="#60A5FA"/>
  <path d="M 342.42 64.61 A 210 210 0 0 1 447.39 169.58 L 379.04 200.45 A 135 135 0 0 0 311.55 132.96 Z" fill="#60A5FA8c"/>
  <path d="M 452.44 181.77 A 210 210 0 0 1 452.44 330.23 L 382.28 303.72 A 135 135 0 0 0 382.28 208.28 Z" fill="#60A5FA38"/>
  <path d="M 447.39 342.42 A 210 210 0 0 1 342.42 447.39 L 311.55 379.04 A 135 135 0 0 0 379.04 311.55 Z" fill="#60A5FA14"/>
  <path d="M 330.23 452.44 A 210 210 0 0 1 181.77 452.44 L 208.28 382.28 A 135 135 0 0 0 303.72 382.28 Z" fill="#60A5FA0a"/>
  <path d="M 169.58 447.39 A 210 210 0 0 1 64.61 342.42 L 132.96 311.55 A 135 135 0 0 0 200.45 379.04 Z" fill="#60A5FA14"/>
  <path d="M 59.56 330.23 A 210 210 0 0 1 59.56 181.77 L 129.72 208.28 A 135 135 0 0 0 129.72 303.72 Z" fill="#60A5FA38"/>
  <path d="M 64.61 169.58 A 210 210 0 0 1 169.58 64.61 L 200.45 132.96 A 135 135 0 0 0 132.96 200.45 Z" fill="#60A5FA8c"/>

  <!-- Subtle glow on the tonic segment -->
  <defs>
    <filter id="glow">
      <feGaussianBlur stdDeviation="8" result="blur"/>
      <feMerge>
        <feMergeNode in="blur"/>
        <feMergeNode in="SourceGraphic"/>
      </feMerge>
    </filter>
  </defs>
  <path d="M 181.77 59.56 A 210 210 0 0 1 330.23 59.56 L 303.72 129.72 A 135 135 0 0 0 208.28 129.72 Z" fill="#60A5FA40" filter="url(#glow)"/>
</svg>
